<svg width="58" height="58" viewBox="0 0 58 58" fill="none" xmlns="http://www.w3.org/2000/svg">
<g clip-path="url(#clip0_953_4519)">
<path d="M5.06013 1.74C4.20013 0.880002 2.81013 0.720003 1.87013 1.49C0.78013 2.38 0.71013 3.99 1.67013 4.97L27.3451 30.63L53.0201 56.29C53.9301 57.2 55.4101 57.2 56.3201 56.29C57.2301 55.38 57.2301 53.9 56.3201 52.99L32.5001 29.17C31.9701 28.64 32.2001 27.76 32.9001 27.51C37.7201 25.8 41.0901 21 40.6201 15.5C40.1501 10 35.5801 5.36 30.0101 4.89C24.4401 4.42 19.7101 7.79 18.0001 12.6C17.7501 13.31 16.8701 13.54 16.3401 13.01L5.06013 1.74ZM23.4001 33.84C15.1101 35.15 8.76013 42.34 8.78013 51C8.78013 52.58 10.0901 53.85 11.6701 53.85H39.1801C40.9601 53.85 41.8501 51.7 40.5901 50.44L24.2701 34.13C24.0401 33.9 23.7201 33.79 23.4001 33.84Z" stroke="#A5A6B9" stroke-width="2" stroke-miterlimit="10"/>
</g>
<defs>
<clipPath id="clip0_953_4519">
<rect width="58" height="57.98" fill="white"/>
</clipPath>
</defs>
</svg>
