<svg width="53" height="49" viewBox="0 0 53 49" fill="none" xmlns="http://www.w3.org/2000/svg">
<g clip-path="url(#clip0_953_4508)">
<path d="M48.5 15V11.95C48.5 10.09 47.77 8.31 46.45 7L41.5 2.05C40.19 0.74 38.4 0 36.55 0H20.5C16.64 0 13.5 3.14 13.5 7V10.02C12.69 8.8 11.32 8 9.75 8H4.5C2.02 8 0 10.02 0 12.5V44C0 46.48 2.02 48.5 4.5 48.5H9.75C11.24 48.5 12.56 47.76 13.37 46.64C14.19 47.76 15.5 48.5 16.99 48.5H48.49C50.97 48.5 52.99 46.48 52.99 44V19.5C52.99 17.02 50.97 15 48.49 15H48.5ZM36.55 7L41.5 11.95V15H20.5V7H36.55ZM12.25 44C12.25 45.38 11.13 46.5 9.75 46.5H4.5C3.12 46.5 2 45.38 2 44V12.5C2 11.12 3.12 10 4.5 10H9.75C11.13 10 12.25 11.12 12.25 12.5V44ZM51 44C51 45.38 49.88 46.5 48.5 46.5H17C15.62 46.5 14.5 45.38 14.5 44V17H48.5C49.88 17 51 18.12 51 19.5V44Z" fill="#A5A6B9"/>
<path d="M23.12 29.1199C24.567 29.1199 25.74 27.9469 25.74 26.4999C25.74 25.0529 24.567 23.8799 23.12 23.8799C21.673 23.8799 20.5 25.0529 20.5 26.4999C20.5 27.9469 21.673 29.1199 23.12 29.1199Z" fill="#A5A6B9"/>
<path d="M23.12 39.6199C24.567 39.6199 25.74 38.4469 25.74 36.9999C25.74 35.5529 24.567 34.3799 23.12 34.3799C21.673 34.3799 20.5 35.5529 20.5 36.9999C20.5 38.4469 21.673 39.6199 23.12 39.6199Z" fill="#A5A6B9"/>
<path d="M32.7499 29.1199C34.1969 29.1199 35.3699 27.9469 35.3699 26.4999C35.3699 25.0529 34.1969 23.8799 32.7499 23.8799C31.3029 23.8799 30.1299 25.0529 30.1299 26.4999C30.1299 27.9469 31.3029 29.1199 32.7499 29.1199Z" fill="#A5A6B9"/>
<path d="M32.7499 39.6199C34.1969 39.6199 35.3699 38.4469 35.3699 36.9999C35.3699 35.5529 34.1969 34.3799 32.7499 34.3799C31.3029 34.3799 30.1299 35.5529 30.1299 36.9999C30.1299 38.4469 31.3029 39.6199 32.7499 39.6199Z" fill="#A5A6B9"/>
<path d="M42.37 29.1199C43.817 29.1199 44.99 27.9469 44.99 26.4999C44.99 25.0529 43.817 23.8799 42.37 23.8799C40.923 23.8799 39.75 25.0529 39.75 26.4999C39.75 27.9469 40.923 29.1199 42.37 29.1199Z" fill="#A5A6B9"/>
<path d="M42.37 39.6199C43.817 39.6199 44.99 38.4469 44.99 36.9999C44.99 35.5529 43.817 34.3799 42.37 34.3799C40.923 34.3799 39.75 35.5529 39.75 36.9999C39.75 38.4469 40.923 39.6199 42.37 39.6199Z" fill="#A5A6B9"/>
</g>
<defs>
<clipPath id="clip0_953_4508">
<rect width="53" height="48.5" fill="white"/>
</clipPath>
</defs>
</svg>
