<svg width="36" height="32" viewBox="0 0 36 32" fill="none" xmlns="http://www.w3.org/2000/svg">
<g clip-path="url(#clip0_953_4537)">
<mask id="mask0_953_4537" style="mask-type:luminance" maskUnits="userSpaceOnUse" x="0" y="0" width="36" height="32">
<path d="M36 0H0V32H36V0Z" fill="white"/>
</mask>
<g mask="url(#mask0_953_4537)">
<path d="M24.75 4.57231H29.25C30.4971 4.57231 31.5 5.59385 31.5 6.86154V25.1446C31.5 26.4062 30.4971 27.4277 29.25 27.4277H24.75C23.5029 27.4277 22.5 28.4492 22.5 29.7169C22.5 30.9846 23.5029 32 24.75 32H29.25C32.9786 32 36 28.9292 36 25.1446V6.85539C36 3.07077 32.9786 0 29.25 0H24.75C23.5029 0 22.5 1.02154 22.5 2.28308C22.5 3.54462 23.5029 4.56615 24.75 4.56615M24.0879 17.6062C24.9686 16.7138 24.9686 15.2615 24.0879 14.3692L15.0879 5.22462C14.2071 4.33231 12.78 4.33231 11.9057 5.22462C11.0314 6.11692 11.025 7.56923 11.9057 8.46154L17.0679 13.7046H2.25C1.00286 13.7046 0 14.7262 0 15.9877C0 17.2492 1.00286 18.2708 2.25 18.2708H17.0679L11.9057 23.5138C11.025 24.4062 11.025 25.8585 11.9057 26.7508C12.7864 27.6431 14.2136 27.6431 15.0879 26.7508L24.0879 17.6062Z" fill="white"/>
</g>
</g>
<defs>
<clipPath id="clip0_953_4537">
<rect width="36" height="32" fill="white"/>
</clipPath>
</defs>
</svg>
