<svg width="40" height="40" viewBox="0 0 40 40" fill="none" xmlns="http://www.w3.org/2000/svg">
<path fill-rule="evenodd" clip-rule="evenodd" d="M24.9949 1.627C25.7973 1.627 26.4484 2.27618 26.4484 3.07606C26.4484 3.87594 25.7973 4.52512 24.9949 4.52512H10.9092C6.04863 4.52512 2.90706 7.85602 2.90706 13.0147V28.6297C2.90706 33.856 5.97304 37.1019 10.9092 37.1019H27.5841C32.4447 37.1019 35.5863 33.7768 35.5863 28.6297V15.0298C35.5863 14.2299 36.2375 13.5808 37.0398 13.5808C37.8422 13.5808 38.4934 14.2299 38.4934 15.0298V28.6297C38.4934 35.4306 34.1095 40 27.5841 40H10.9092C4.38385 40 0 35.4306 0 28.6297V13.0147C0 6.20409 4.38385 1.627 10.9092 1.627H24.9949ZM29.0946 14.8227C29.7303 15.3135 29.8466 16.2235 29.3543 16.8553L23.6759 24.1585C23.4394 24.4638 23.0906 24.6628 22.7069 24.7092C22.3193 24.7613 21.9355 24.6493 21.6293 24.4116L16.1679 20.134L11.2627 26.4886C10.9759 26.8596 10.5457 27.0547 10.1096 27.0547C9.79951 27.0547 9.48749 26.9562 9.22391 26.7552C8.58824 26.2664 8.46808 25.3564 8.9584 24.7227L14.759 17.2069C14.9954 16.8997 15.3462 16.7007 15.7299 16.6524C16.1214 16.6022 16.5051 16.7103 16.8094 16.9519L22.2747 21.2314L27.0558 15.0816C27.5481 14.446 28.459 14.3281 29.0946 14.8227ZM34.8216 0C37.6782 0 40 2.31463 40 5.16251C40 8.01039 37.6782 10.327 34.8216 10.327C31.9668 10.327 29.6431 8.01039 29.6431 5.16251C29.6431 2.31463 31.9668 0 34.8216 0ZM34.8216 2.89812C33.5696 2.89812 32.5502 3.91246 32.5502 5.16251C32.5502 6.41063 33.5696 7.42884 34.8216 7.42884C36.0735 7.42884 37.0929 6.41063 37.0929 5.16251C37.0929 3.91246 36.0735 2.89812 34.8216 2.89812Z" fill="#A5A6B9"/>
</svg>
