<svg width="24" height="34" viewBox="0 0 24 34" fill="none" xmlns="http://www.w3.org/2000/svg">
<g clip-path="url(#clip0_953_4543)">
<mask id="mask0_953_4543" style="mask-type:luminance" maskUnits="userSpaceOnUse" x="0" y="0" width="24" height="34">
<path d="M24 0H0V34H24V0Z" fill="white"/>
</mask>
<g mask="url(#mask0_953_4543)">
<path d="M7.99773 7.9968V11.9952H15.9955V7.9968C15.9955 5.7936 14.2001 3.9984 11.9966 3.9984C9.79314 3.9984 7.99773 5.7936 7.99773 7.9968ZM3.99887 11.9952V7.9968C3.99887 3.5836 7.58288 0 12.0034 0C16.4239 0 20.0011 3.5836 20.0011 7.9968V11.9952C22.2046 11.9952 24 13.7904 24 15.9936V29.9948C24 32.198 22.2046 33.9932 20.0011 33.9932H3.99887C1.79541 34 0 32.2048 0 30.0016V16.0004C0 13.7972 1.79541 12.002 3.99887 12.002" fill="white"/>
</g>
</g>
<defs>
<clipPath id="clip0_953_4543">
<rect width="24" height="34" fill="white"/>
</clipPath>
</defs>
</svg>
