<svg width="29" height="29" viewBox="0 0 29 29" fill="none" xmlns="http://www.w3.org/2000/svg">
<path d="M1.357 10.8766H9.51452C10.0635 10.8766 10.5608 10.5503 10.7731 10.0376C10.9855 9.52489 10.8715 8.94486 10.4779 8.55126L7.83122 5.90487C12.099 2.58521 18.2729 2.88559 22.1936 6.80599C26.4407 11.0527 26.4407 17.9354 22.1936 22.1872C17.9466 26.4339 11.0632 26.4339 6.81088 22.1872C6.23079 21.6072 5.73357 20.9805 5.31404 20.3176C4.77539 19.4735 3.65664 19.2249 2.8124 19.7635C1.96816 20.3021 1.71955 21.4207 2.25821 22.2649C2.8124 23.1505 3.47536 23.9843 4.24709 24.7507C9.91333 30.4164 19.0912 30.4164 24.7523 24.7507C30.4133 19.0851 30.4185 9.90813 24.7523 4.24763C19.4175 -1.09178 10.9492 -1.39733 5.25189 3.33097L2.32036 0.399736C1.93191 0.011321 1.34664 -0.107793 0.83906 0.10454C0.326301 0.311695 0 0.814045 0 1.363V9.51971C0 10.2706 0.605987 10.8766 1.357 10.8766Z" fill="white"/>
</svg>
