<svg width="78" height="38" viewBox="0 0 78 38" fill="none" xmlns="http://www.w3.org/2000/svg">
<mask id="path-1-inside-1_953_4382" fill="white">
<path d="M58.502 0C69.2731 0 78.001 8.50437 78.001 19C78.0007 29.4954 69.273 37.999 58.502 37.999H19.5049C14.1369 37.9988 9.27629 35.887 5.75098 32.4688L1.38574 36.7217C0.874751 37.2262 0 36.8726 0 36.165V19H0.00683594L0.0136719 18.5088C0.280675 8.24034 8.90244 0.000355091 19.5049 0H58.502Z"/>
</mask>
<path d="M78.001 19L81.001 19.0001V19H78.001ZM19.5049 37.999L19.5048 40.999H19.5049V37.999ZM5.75098 32.4688L7.83935 30.315L5.746 28.2852L3.65748 30.32L5.75098 32.4688ZM1.38574 36.7217L-0.707757 34.5729L-0.714859 34.5798L-0.721915 34.5868L1.38574 36.7217ZM0 19V16H-3V19H0ZM0.00683594 19V22H2.96538L3.00655 19.0417L0.00683594 19ZM0.0136719 18.5088L-2.98531 18.4308L-2.98579 18.4489L-2.98604 18.467L0.0136719 18.5088ZM19.5049 0V-3H19.5048L19.5049 0ZM58.502 0V3C67.6901 3 75.001 10.2341 75.001 19H78.001H81.001C81.001 6.77466 70.8562 -3 58.502 -3V0ZM78.001 19L75.001 18.9999C75.0008 27.7656 67.69 34.999 58.502 34.999V37.999V40.999C70.8559 40.999 81.0007 31.2253 81.001 19.0001L78.001 19ZM58.502 37.999V34.999H19.5049V37.999V40.999H58.502V37.999ZM19.5049 37.999L19.505 34.999C14.9362 34.9989 10.8192 33.2043 7.83935 30.315L5.75098 32.4688L3.6626 34.6225C7.73342 38.5698 13.3377 40.9988 19.5048 40.999L19.5049 37.999ZM5.75098 32.4688L3.65748 30.32L-0.707757 34.5729L1.38574 36.7217L3.47924 38.8705L7.84448 34.6175L5.75098 32.4688ZM1.38574 36.7217L-0.721915 34.5868C0.565359 33.3159 3 34.0734 3 36.165H0H-3C-3 39.6718 1.18414 41.1364 3.4934 38.8566L1.38574 36.7217ZM0 36.165H3V19H0H-3V36.165H0ZM0 19V22H0.00683594V19V16H0V19ZM0.00683594 19L3.00655 19.0417L3.01338 18.5505L0.0136719 18.5088L-2.98604 18.467L-2.99287 18.9583L0.00683594 19ZM0.0136719 18.5088L3.01266 18.5868C3.23567 10.0101 10.4622 3.0003 19.505 3L19.5049 0L19.5048 -3C7.34265 -2.99959 -2.67432 6.47056 -2.98531 18.4308L0.0136719 18.5088ZM19.5049 0V3H58.502V0V-3H19.5049V0Z" fill="#A5A6B9" mask="url(#path-1-inside-1_953_4382)"/>
</svg>
