<svg width="158" height="39" viewBox="0 0 158 39" fill="none" xmlns="http://www.w3.org/2000/svg">
<path d="M38.2656 19.1328C38.2656 8.56766 29.698 0 19.1328 0C8.56766 0 0 8.56766 0 19.1328C0 20.3899 0.126115 21.6185 0.358003 22.8105C2.07479 31.6182 9.82474 38.2656 19.1328 38.2656C24.3971 38.2656 29.161 36.1379 32.6189 32.7003L36.1786 36.26C36.9475 37.0289 38.2616 36.4837 38.2616 35.3975V33.4V26.4881L38.2656 19.1328ZM28.4775 32.3708C28.0219 32.3708 27.5988 32.2406 27.2367 32.025C24.9015 33.6726 22.0579 34.6408 18.9864 34.6408C15.325 34.6408 11.9768 33.2658 9.44232 31.0039C9.08025 30.6825 9.08432 30.1251 9.43012 29.7834C9.77592 29.4417 10.3292 29.4457 10.6913 29.7671C12.9044 31.7117 15.8091 32.8874 18.9864 32.8874C21.6551 32.8874 24.1286 32.0535 26.1668 30.6377C26.1057 30.4221 26.0691 30.1984 26.0691 29.9624C26.0691 28.6321 27.1472 27.5499 28.4816 27.5499C29.8119 27.5499 30.894 28.628 30.894 29.9624C30.8899 31.2927 29.8119 32.3708 28.4775 32.3708Z" fill="#36BCF8"/>
<path d="M56.9229 11.5796H46.6357C46.0387 11.5796 45.5542 12.0596 45.5542 12.6511V28.1169C45.5542 28.7083 46.0387 29.1884 46.6357 29.1884H48.4699C49.0669 29.1884 49.5514 28.7083 49.5514 28.1169V22.1701H56.0577C56.6547 22.1701 57.1392 21.6901 57.1392 21.0987V20.055C57.1392 19.4636 56.6547 18.9835 56.0577 18.9835H49.5536V14.959H56.9251C57.5221 14.959 58.0066 14.479 58.0066 13.8876V12.6511C58.0044 12.0596 57.5221 11.5796 56.9229 11.5796Z" fill="#36BCF8"/>
<path d="M75.6692 11.5796H73.835C73.238 11.5796 72.7535 12.0596 72.7535 12.6511V21.5637C72.7535 22.5044 72.5891 23.3166 72.2603 24.0024C71.9315 24.6881 71.46 25.2131 70.8435 25.5775C70.2271 25.9418 69.4808 26.1239 68.6351 26.1239C67.7894 26.1239 67.0583 25.9418 66.4418 25.5775C65.8254 25.2131 65.3495 24.6881 65.0164 24.0024C64.6833 23.3188 64.5168 22.5044 64.5168 21.5637V12.6511C64.5168 12.0596 64.0322 11.5796 63.4353 11.5796H61.601C61.004 11.5796 60.5195 12.0596 60.5195 12.6511V21.5637C60.5195 23.1366 60.857 24.5253 61.534 25.7275C62.2088 26.9318 63.1606 27.8683 64.3891 28.5305C65.6177 29.1948 67.0237 29.5269 68.6351 29.5269C70.2465 29.5269 71.6676 29.1948 72.8962 28.5305C74.1248 27.864 75.0744 26.9297 75.7449 25.7275C76.4154 24.5231 76.7507 23.1366 76.7507 21.5637V12.6511C76.7507 12.0596 76.2662 11.5796 75.6692 11.5796Z" fill="#36BCF8"/>
<path d="M96.2784 11.6296H94.4031C93.8061 11.6296 93.3216 12.1096 93.3216 12.7011V23.4266C93.3216 23.4673 93.2891 23.4995 93.248 23.4995C93.2242 23.4995 93.2026 23.4888 93.1875 23.4695L84.901 12.0732C84.6977 11.7946 84.3711 11.6274 84.0228 11.6274H81.0898C80.4928 11.6274 80.0083 12.1075 80.0083 12.6989V28.1133C80.0083 28.7048 80.4928 29.1848 81.0898 29.1848H82.9651C83.5621 29.1848 84.0466 28.7048 84.0466 28.1133V17.3706C84.0466 17.3127 84.092 17.2677 84.1504 17.2677C84.1851 17.2677 84.2153 17.2827 84.2348 17.3106L92.5083 28.739C92.7116 29.0198 93.0382 29.1869 93.3865 29.1869H96.2784C96.8754 29.1869 97.3599 28.7069 97.3599 28.1154V12.7011C97.3599 12.1096 96.8754 11.6296 96.2784 11.6296Z" fill="#36BCF8"/>
<path d="M114.312 19.5162C113.393 19.0169 112.216 18.6011 110.775 18.269L109.852 18.0504C109.201 17.8961 108.682 17.7332 108.297 17.5639C107.914 17.3946 107.63 17.2061 107.455 16.9982C107.28 16.7925 107.191 16.5417 107.191 16.2503C107.191 15.8774 107.319 15.5453 107.572 15.2581C107.827 14.9709 108.18 14.7459 108.632 14.5831C109.084 14.4202 109.592 14.3388 110.152 14.3388C110.931 14.3388 111.669 14.4823 112.365 14.7695C112.776 14.9388 113.174 15.1595 113.566 15.4338C114.042 15.7681 114.701 15.7638 115.112 15.3545L116.135 14.3366C116.568 13.9059 116.555 13.1987 116.062 12.8387C115.372 12.3372 114.623 11.9279 113.812 11.6129C112.649 11.1586 111.485 10.9336 110.152 10.9336C108.822 10.9336 107.624 11.165 106.56 11.6215C105.496 12.0801 104.663 12.7165 104.055 13.5309C103.447 14.3452 103.144 15.2602 103.144 16.2717C103.144 17.4954 103.625 18.5347 104.585 19.3855C105.545 20.2384 106.966 20.8855 108.85 21.3313L109.774 21.5499C110.6 21.7427 111.243 21.9399 111.703 22.1392C112.164 22.3385 112.493 22.5635 112.687 22.8142C112.882 23.0671 112.979 23.3692 112.979 23.7271C112.979 24.1471 112.852 24.5179 112.599 24.8329C112.346 25.15 111.976 25.3922 111.494 25.5636C111.009 25.7329 110.438 25.8186 109.776 25.8186C108.889 25.8186 108.059 25.6622 107.278 25.3515C106.785 25.1543 106.304 24.8865 105.835 24.55C105.366 24.2136 104.71 24.2157 104.299 24.6186L103.248 25.6494C102.809 26.0801 102.82 26.7916 103.315 27.1559C104.083 27.7216 104.918 28.1738 105.818 28.5145H105.809C107.062 28.9881 108.346 29.226 109.767 29.226C111.189 29.226 112.445 28.9881 113.542 28.5145C114.639 28.0409 115.491 27.383 116.103 26.5387C116.713 25.6965 117.02 24.7364 117.02 23.6564C117.02 22.7563 116.799 21.9656 116.356 21.2841C115.913 20.6048 115.231 20.0155 114.312 19.5162Z" fill="#36BCF8"/>
<path d="M139.85 11.3018H136.588C136.162 11.3018 135.775 11.5503 135.6 11.9361L130.486 23.2681C130.473 23.2981 130.443 23.3174 130.409 23.3174C130.374 23.3174 130.344 23.2981 130.331 23.2681L125.217 11.9361C125.042 11.5503 124.657 11.3018 124.231 11.3018H120.969C120.372 11.3018 119.888 11.7818 119.888 12.3732V27.7876C119.888 28.3791 120.372 28.8591 120.969 28.8591H122.739C123.336 28.8591 123.82 28.3791 123.82 27.7876V18.0692C123.82 18.035 123.848 18.0071 123.883 18.0071C123.907 18.0071 123.93 18.0221 123.939 18.0435L128.46 28.2205C128.633 28.6105 129.02 28.8612 129.45 28.8612H131.375C131.804 28.8612 132.193 28.6105 132.366 28.2205L136.887 18.0435C136.895 18.0221 136.919 18.0071 136.943 18.0071C136.975 18.0071 137.004 18.035 137.004 18.0671V27.7876C137.004 28.3791 137.488 28.8591 138.085 28.8591H139.854C140.451 28.8591 140.936 28.3791 140.936 27.7876V12.3732C140.932 11.7818 140.447 11.3018 139.85 11.3018Z" fill="#36BCF8"/>
<path d="M157.336 21.2858C156.893 20.6065 156.211 20.0172 155.292 19.5179C154.373 19.0186 153.194 18.6028 151.755 18.2707L150.832 18.0521C150.181 17.8978 149.662 17.7349 149.277 17.5656C148.892 17.3963 148.61 17.2078 148.435 16.9999C148.26 16.7942 148.171 16.5434 148.171 16.252C148.171 15.8791 148.299 15.547 148.552 15.2598C148.805 14.9727 149.16 14.7476 149.612 14.5848C150.064 14.4219 150.572 14.3405 151.132 14.3405C151.911 14.3405 152.649 14.4841 153.345 14.7712C153.754 14.9405 154.154 15.1612 154.546 15.4355C155.022 15.7698 155.681 15.7656 156.094 15.3562L157.117 14.3383C157.55 13.9076 157.537 13.2004 157.044 12.8404C156.354 12.3389 155.606 11.9296 154.794 11.6146C153.631 11.1603 152.467 10.9353 151.135 10.9353C149.804 10.9353 148.606 11.1667 147.542 11.6232C146.478 12.0818 145.643 12.7183 145.037 13.5326C144.429 14.3469 144.126 15.262 144.126 16.2734C144.126 17.4971 144.607 18.5364 145.567 19.3872C146.527 20.2401 147.949 20.8872 149.83 21.333L150.754 21.5516C151.578 21.7444 152.223 21.9416 152.683 22.1409C153.144 22.3402 153.473 22.5652 153.667 22.8159C153.862 23.0688 153.959 23.3709 153.959 23.7288C153.959 24.1488 153.832 24.5196 153.579 24.8346C153.326 25.1517 152.956 25.3939 152.473 25.5653C151.989 25.7346 151.418 25.8204 150.756 25.8204C149.869 25.8204 149.036 25.6639 148.258 25.3532C147.765 25.156 147.284 24.8882 146.815 24.5517C146.346 24.2153 145.692 24.2174 145.279 24.6203L144.228 25.6511C143.789 26.0818 143.8 26.7911 144.295 27.1554C145.063 27.7212 145.898 28.1733 146.798 28.5141H146.789C148.044 28.9877 149.326 29.2255 150.747 29.2255C152.169 29.2255 153.427 28.9877 154.522 28.5141C155.619 28.0405 156.471 27.3826 157.083 26.5382C157.693 25.6961 158 24.736 158 23.656C158 22.7581 157.779 21.9652 157.336 21.2858Z" fill="#36BCF8"/>
</svg>
